<svg width="102" height="45" viewBox="0 0 102 45" fill="none" xmlns="http://www.w3.org/2000/svg">
<path d="M59.6744 10.949C59.5862 11.0373 59.4979 11.0815 59.3655 11.0815H52.0832C51.9508 11.0815 51.9067 11.1256 51.9067 11.258V17.6576C51.9067 17.79 51.9508 17.8341 52.0832 17.8341H56.4085C56.5409 17.8341 56.6291 17.8783 56.7174 17.9665C56.8057 18.0548 56.8498 18.1431 56.8498 18.2755V20.8794C56.8498 21.0118 56.8057 21.1001 56.7174 21.1884C56.6291 21.2767 56.5409 21.3208 56.4085 21.3208H52.0832C51.9508 21.3208 51.9067 21.3649 51.9067 21.4973V31.1188C51.9067 31.2512 51.8625 31.3395 51.7743 31.4277C51.686 31.516 51.5977 31.5601 51.4653 31.5601H48.3317C48.1993 31.5601 48.1111 31.516 48.0228 31.4277C47.9345 31.3395 47.8904 31.2512 47.8904 31.1188V8.08027C47.8904 7.94786 47.9345 7.85959 48.0228 7.77132C48.1111 7.68305 48.1993 7.63892 48.3317 7.63892H59.3655C59.4979 7.63892 59.5862 7.68305 59.6744 7.77132C59.7627 7.85959 59.8069 7.94786 59.8069 8.08027V10.6842C59.8069 10.7725 59.7627 10.8608 59.6744 10.949Z" fill="#292929"/>
<path d="M64.4409 31.1629L60.2922 14.524V14.3916C60.2922 14.1709 60.4246 14.0826 60.6453 14.0826H64.132C64.3968 14.0826 64.5733 14.215 64.5733 14.4357L66.6036 25.0281C66.6477 25.1164 66.6477 25.1164 66.6918 25.1164C66.736 25.1164 66.7801 25.0723 66.7801 25.0281L68.8103 14.4357C68.8544 14.1709 68.9869 14.0826 69.2517 14.0826L72.7383 14.1709C73.0473 14.1709 73.1797 14.3033 73.0914 14.6123L68.9868 31.2071C68.8986 31.4277 68.7662 31.5601 68.5014 31.5601H64.9264C64.6616 31.4719 64.5292 31.3836 64.4409 31.1629Z" fill="#292929"/>
<path d="M75.6955 11.0374C75.2541 10.596 75.0334 10.0223 75.0334 9.3161C75.0334 8.60993 75.2541 8.03618 75.6955 7.59483C76.1368 7.15348 76.7106 6.9328 77.4167 6.9328C78.1229 6.9328 78.6967 7.15348 79.138 7.59483C79.5794 8.03618 79.8 8.60993 79.8 9.3161C79.8 10.0223 79.5794 10.596 79.138 11.0374C78.6967 11.4787 78.1229 11.6994 77.4167 11.6994C76.7106 11.6994 76.1368 11.4787 75.6955 11.0374ZM75.6072 31.3836C75.5189 31.2954 75.4748 31.2071 75.4748 31.0747V14.524C75.4748 14.3916 75.5189 14.3034 75.6072 14.2151C75.6955 14.1268 75.7837 14.0827 75.9161 14.0827H79.0497C79.1821 14.0827 79.2704 14.1268 79.3587 14.2151C79.447 14.3034 79.4911 14.3916 79.4911 14.524V31.1188C79.4911 31.2512 79.447 31.3395 79.3587 31.4278C79.2704 31.516 79.1821 31.5602 79.0497 31.5602H75.9161C75.7837 31.4719 75.6955 31.4719 75.6072 31.3836Z" fill="#292929"/>
<path d="M90.5692 7.77132C90.6575 7.68305 90.7458 7.63892 90.8782 7.63892H94.0118C94.1442 7.63892 94.2324 7.68305 94.3207 7.77132C94.409 7.85959 94.4531 7.94786 94.4531 8.08027V31.0746C94.4531 31.2071 94.409 31.2953 94.3207 31.3836C94.2324 31.4719 94.1442 31.516 94.0118 31.516H90.8782C90.7458 31.516 90.6575 31.4719 90.5692 31.3836C90.481 31.2953 90.4368 31.2071 90.4368 31.0746V30.6774C90.4368 30.5892 90.3927 30.545 90.3486 30.545C90.3044 30.5009 90.2603 30.545 90.2162 30.5892C89.3776 31.3836 88.3625 31.7808 87.1708 31.7808C85.6702 31.7808 84.4786 31.2953 83.64 30.2802C82.8015 29.2651 82.3601 27.9411 82.3601 26.2639V19.3347C82.3601 17.6134 82.8015 16.2453 83.64 15.2743C84.4786 14.3033 85.6702 13.8178 87.1708 13.8178C87.7005 13.8178 88.2301 13.9061 88.7597 14.1268C89.2893 14.3033 89.7748 14.6123 90.2162 15.0536C90.2603 15.0977 90.3044 15.0977 90.3486 15.0977C90.3927 15.0536 90.4368 15.0095 90.4368 14.9653V8.08027C90.481 7.94786 90.481 7.85959 90.5692 7.77132ZM89.7748 27.8087C90.1279 27.4556 90.3486 26.9701 90.4368 26.3963V19.1582C90.3486 18.5844 90.1279 18.0989 89.7748 17.7459C89.4217 17.3928 88.9362 17.2162 88.4066 17.2162C87.7887 17.2162 87.2591 17.4369 86.8619 17.8783C86.4647 18.3196 86.2881 18.8934 86.2881 19.6437V25.955C86.2881 26.6611 86.4647 27.279 86.8619 27.7204C87.2591 28.1617 87.7446 28.3824 88.4066 28.3824C88.9804 28.3383 89.4217 28.1617 89.7748 27.8087Z" fill="#292929"/>
<path d="M101.206 14.0826H98.072C97.9396 14.0826 97.8513 14.1268 97.763 14.215C97.6747 14.3033 97.6306 14.3916 97.6306 14.524V31.1188C97.6306 31.2512 97.6747 31.3395 97.763 31.4277C97.8513 31.516 97.9396 31.5601 98.072 31.5601H101.206C101.338 31.5601 101.426 31.516 101.514 31.4277C101.603 31.3395 101.647 31.2512 101.647 31.1188V14.524C101.647 14.3916 101.603 14.3033 101.514 14.215C101.426 14.1268 101.338 14.0826 101.206 14.0826Z" fill="#292929"/>
<path d="M99.6167 11.6994C100.279 11.6994 100.852 11.4787 101.338 11.0374C101.779 10.596 102 10.0223 102 9.31609C102 8.60993 101.779 8.03618 101.338 7.59483C100.897 7.15348 100.323 6.9328 99.6167 6.9328C98.9105 6.9328 98.3368 7.15348 97.8954 7.59483C97.4541 8.03618 97.2334 8.60993 97.2334 9.31609C97.2334 10.0223 97.4541 10.596 97.8954 11.0374C98.3368 11.4787 98.9105 11.6994 99.6167 11.6994Z" fill="#40B554"/>
<path d="M13.0959 4.16437H0.657534C0.273973 4.16437 0 4.43834 0 4.76711V17.2055C0 20.4383 2.57534 23.0137 5.75342 23.0137H18.1918C18.5205 23.0137 18.8493 22.7397 18.8493 22.3561V9.91779C18.8493 6.73971 16.274 4.16437 13.0959 4.16437Z" fill="url(#paint0_linear_732_133)"/>
<path d="M39.2875 0H26.8491C23.671 0 21.0957 2.57534 21.0957 5.75342V18.1918C21.0957 18.5205 21.3697 18.8493 21.7532 18.8493H34.1916C37.3697 18.8493 39.945 16.274 39.945 13.0959V0.657534C39.945 0.273973 39.671 0 39.2875 0Z" fill="url(#paint1_linear_732_133)"/>
<path d="M31.0135 21.4246H23.671C22.2464 21.4246 21.0957 22.5753 21.0957 24V31.3424C21.0957 31.6712 21.3697 32 21.7532 32H29.0957C30.5204 32 31.671 30.8493 31.671 29.4246V22.0274C31.6162 21.6986 31.3423 21.4246 31.0135 21.4246Z" fill="url(#paint2_linear_732_133)"/>
<path d="M17.2604 25.5342H12.7672C12.6029 25.5342 12.4385 25.6986 12.4385 25.863V30.3562C12.4385 31.2329 13.1508 31.9452 14.0275 31.9452H18.5207C18.6851 31.9452 18.8494 31.7808 18.8494 31.6164V27.1233C18.8494 26.3014 18.1371 25.5342 17.2604 25.5342Z" fill="url(#paint3_linear_732_133)"/>
<path d="M48.13 35H53.28V36.32H51.39V42H50.01V36.32H48.13V35ZM56.4304 39.11V40.68H59.3804V42H55.0504V35H59.3304V36.32H56.4304V37.81H59.0804V39.11H56.4304ZM63.7431 42.14C62.3531 42.14 61.3831 41.48 60.9931 40.41L62.1731 39.72C62.4431 40.43 62.9831 40.79 63.7831 40.79C64.5531 40.79 64.9031 40.48 64.9031 40.05C64.9031 39.8 64.7931 39.61 64.5731 39.48C64.3531 39.34 63.9631 39.19 63.3931 39.03C62.7631 38.84 62.3831 38.69 61.9431 38.38C61.5131 38.06 61.2831 37.58 61.2831 36.94C61.2831 36.31 61.5031 35.8 61.9531 35.43C62.4031 35.05 62.9531 34.86 63.5831 34.86C64.7131 34.86 65.6031 35.44 66.0831 36.43L64.9231 37.1C64.6431 36.5 64.1931 36.2 63.5831 36.2C63.0131 36.2 62.6631 36.49 62.6631 36.9C62.6631 37.12 62.7531 37.3 62.9331 37.44C63.1231 37.57 63.4731 37.72 63.9931 37.88L64.4731 38.04C64.5831 38.07 64.7331 38.13 64.9231 38.21C65.1131 38.28 65.2631 38.35 65.3631 38.42C65.5731 38.55 65.8931 38.8 66.0231 39.04C66.1731 39.28 66.2831 39.63 66.2831 40.03C66.2831 40.68 66.0431 41.19 65.5731 41.57C65.1031 41.95 64.4931 42.14 63.7431 42.14ZM67.4093 35H72.5593V36.32H70.6693V42H69.2893V36.32H67.4093V35ZM78.3797 39.27V35H79.7597V42H78.7097L75.7097 37.72V42H74.3297V35H75.3797L78.3797 39.27ZM83.4382 39.11V40.68H86.3882V42H82.0582V35H86.3382V36.32H83.4382V37.81H86.0882V39.11H83.4382ZM87.8409 35H92.9909V36.32H91.1009V42H89.7209V36.32H87.8409V35Z" fill="#40B554"/>
<defs>
<linearGradient id="paint0_linear_732_133" x1="9.4257" y1="23.005" x2="9.4257" y2="4.15368" gradientUnits="userSpaceOnUse">
<stop stop-color="#2AA981"/>
<stop offset="0.183" stop-color="#2FAC7E"/>
<stop offset="0.404" stop-color="#3EB677"/>
<stop offset="0.6445" stop-color="#56C76A"/>
<stop offset="0.8973" stop-color="#78DD59"/>
<stop offset="1" stop-color="#88E851"/>
</linearGradient>
<linearGradient id="paint1_linear_732_133" x1="30.5135" y1="18.8513" x2="30.5135" y2="0" gradientUnits="userSpaceOnUse">
<stop stop-color="#2AA981"/>
<stop offset="0.183" stop-color="#2FAC7E"/>
<stop offset="0.404" stop-color="#3EB677"/>
<stop offset="0.6445" stop-color="#56C76A"/>
<stop offset="0.8973" stop-color="#78DD59"/>
<stop offset="1" stop-color="#88E851"/>
</linearGradient>
<linearGradient id="paint2_linear_732_133" x1="26.3598" y1="31.9514" x2="26.3598" y2="21.4074" gradientUnits="userSpaceOnUse">
<stop stop-color="#2AA981"/>
<stop offset="0.183" stop-color="#2FAC7E"/>
<stop offset="0.404" stop-color="#3EB677"/>
<stop offset="0.6445" stop-color="#56C76A"/>
<stop offset="0.8973" stop-color="#78DD59"/>
<stop offset="1" stop-color="#88E851"/>
</linearGradient>
<linearGradient id="paint3_linear_732_133" x1="15.6563" y1="31.9514" x2="15.6563" y2="25.5611" gradientUnits="userSpaceOnUse">
<stop stop-color="#2AA981"/>
<stop offset="0.183" stop-color="#2FAC7E"/>
<stop offset="0.404" stop-color="#3EB677"/>
<stop offset="0.6445" stop-color="#56C76A"/>
<stop offset="0.8973" stop-color="#78DD59"/>
<stop offset="1" stop-color="#88E851"/>
</linearGradient>
</defs>
</svg>
