<svg width="110" height="32" viewBox="0 0 110 32" fill="none" xmlns="http://www.w3.org/2000/svg">
<path d="M62.1749 8.49025C62.0762 8.58893 61.9775 8.63828 61.8295 8.63828H53.6877C53.5397 8.63828 53.4903 8.68762 53.4903 8.83565V15.9906C53.4903 16.1386 53.5397 16.1879 53.6877 16.1879H58.5234C58.6715 16.1879 58.7702 16.2373 58.8688 16.336C58.9675 16.4347 59.0169 16.5334 59.0169 16.6814V19.5927C59.0169 19.7407 58.9675 19.8394 58.8688 19.9381C58.7702 20.0368 58.6715 20.0861 58.5234 20.0861H53.6877C53.5397 20.0861 53.4903 20.1355 53.4903 20.2835V31.0406C53.4903 31.1886 53.441 31.2873 53.3423 31.386C53.2436 31.4847 53.1449 31.534 52.9969 31.534H49.4934C49.3454 31.534 49.2467 31.4847 49.148 31.386C49.0493 31.2873 49 31.1886 49 31.0406V5.28287C49 5.13484 49.0493 5.03615 49.148 4.93746C49.2467 4.83877 49.3454 4.78943 49.4934 4.78943H61.8295C61.9775 4.78943 62.0762 4.83877 62.1749 4.93746C62.2736 5.03615 62.3229 5.13484 62.3229 5.28287V8.19418C62.3229 8.29287 62.2736 8.39156 62.1749 8.49025Z" fill="#292929"/>
<path d="M67.5041 31.09L62.8657 12.4872V12.3392C62.8657 12.0925 63.0138 11.9938 63.2605 11.9938H67.1587C67.4547 11.9938 67.6521 12.1418 67.6521 12.3885L69.9219 24.2311C69.9713 24.3298 69.9713 24.3298 70.0206 24.3298C70.07 24.3298 70.1193 24.2805 70.1193 24.2311L72.3892 12.3885C72.4385 12.0925 72.5865 11.9938 72.8826 11.9938L76.7808 12.0925C77.1262 12.0925 77.2742 12.2405 77.1755 12.5859L72.5865 31.1393C72.4878 31.3861 72.3398 31.5341 72.0438 31.5341H68.0469C67.7508 31.4354 67.6028 31.3367 67.5041 31.09Z" fill="#292929"/>
<path d="M80.0868 8.58901C79.5934 8.09557 79.3467 7.4541 79.3467 6.66459C79.3467 5.87508 79.5934 5.23361 80.0868 4.74016C80.5803 4.24672 81.2218 4 82.0113 4C82.8008 4 83.4423 4.24672 83.9357 4.74016C84.4291 5.23361 84.6759 5.87508 84.6759 6.66459C84.6759 7.4541 84.4291 8.09557 83.9357 8.58901C83.4423 9.08245 82.8008 9.32918 82.0113 9.32918C81.2218 9.32918 80.5803 9.08245 80.0868 8.58901ZM79.9882 31.3367C79.8895 31.238 79.8401 31.1393 79.8401 30.9913V12.4872C79.8401 12.3392 79.8895 12.2405 79.9882 12.1418C80.0868 12.0431 80.1855 11.9938 80.3336 11.9938H83.837C83.985 11.9938 84.0837 12.0431 84.1824 12.1418C84.2811 12.2405 84.3304 12.3392 84.3304 12.4872V31.0406C84.3304 31.1887 84.2811 31.2874 84.1824 31.386C84.0837 31.4847 83.985 31.5341 83.837 31.5341H80.3336C80.1855 31.4354 80.0868 31.4354 79.9882 31.3367Z" fill="#292929"/>
<path d="M96.7161 4.93746C96.8148 4.83877 96.9135 4.78943 97.0615 4.78943H100.565C100.713 4.78943 100.812 4.83877 100.91 4.93746C101.009 5.03615 101.058 5.13484 101.058 5.28287V30.9912C101.058 31.1392 101.009 31.2379 100.91 31.3366C100.812 31.4353 100.713 31.4847 100.565 31.4847H97.0615C96.9135 31.4847 96.8148 31.4353 96.7161 31.3366C96.6174 31.2379 96.5681 31.1392 96.5681 30.9912V30.5471C96.5681 30.4484 96.5187 30.3991 96.4694 30.3991C96.42 30.3497 96.3707 30.3991 96.3214 30.4484C95.3838 31.3366 94.2489 31.7807 92.9166 31.7807C91.2389 31.7807 89.9066 31.2379 88.9691 30.103C88.0315 28.9681 87.5381 27.4878 87.5381 25.6127V17.8656C87.5381 15.9412 88.0315 14.4116 88.9691 13.326C89.9066 12.2404 91.2389 11.6976 92.9166 11.6976C93.5087 11.6976 94.1009 11.7963 94.693 12.043C95.2851 12.2404 95.8279 12.5858 96.3214 13.0793C96.3707 13.1286 96.42 13.1286 96.4694 13.1286C96.5187 13.0793 96.5681 13.0299 96.5681 12.9806V5.28287C96.6174 5.13484 96.6174 5.03615 96.7161 4.93746ZM95.8279 27.3397C96.2227 26.945 96.4694 26.4022 96.5681 25.7607V17.6683C96.4694 17.0268 96.2227 16.484 95.8279 16.0893C95.4332 15.6945 94.8904 15.4971 94.2982 15.4971C93.6074 15.4971 93.0153 15.7438 92.5712 16.2373C92.1271 16.7307 91.9297 17.3722 91.9297 18.2111V25.2673C91.9297 26.0568 92.1271 26.7476 92.5712 27.241C93.0153 27.7345 93.5581 27.9812 94.2982 27.9812C94.9397 27.9319 95.4332 27.7345 95.8279 27.3397Z" fill="#292929"/>
<path d="M108.608 11.9938H105.104C104.956 11.9938 104.858 12.0431 104.759 12.1418C104.66 12.2405 104.611 12.3392 104.611 12.4872V31.0406C104.611 31.1887 104.66 31.2874 104.759 31.3861C104.858 31.4847 104.956 31.5341 105.104 31.5341H108.608C108.756 31.5341 108.854 31.4847 108.953 31.3861C109.052 31.2874 109.101 31.1887 109.101 31.0406V12.4872C109.101 12.3392 109.052 12.2405 108.953 12.1418C108.854 12.0431 108.756 11.9938 108.608 11.9938Z" fill="#292929"/>
<path d="M106.831 9.32918C107.572 9.32918 108.213 9.08245 108.756 8.58901C109.249 8.09557 109.496 7.4541 109.496 6.66459C109.496 5.87508 109.249 5.23361 108.756 4.74016C108.262 4.24672 107.621 4 106.831 4C106.042 4 105.4 4.24672 104.907 4.74016C104.413 5.23361 104.167 5.87508 104.167 6.66459C104.167 7.4541 104.413 8.09557 104.907 8.58901C105.4 9.08245 106.042 9.32918 106.831 9.32918Z" fill="#40B554"/>
<path d="M13.0959 4.16431H0.657534C0.273973 4.16431 0 4.43828 0 4.76705V17.2054C0 20.4383 2.57534 23.0136 5.75342 23.0136H18.1918C18.5205 23.0136 18.8493 22.7396 18.8493 22.3561V9.91773C18.8493 6.73965 16.274 4.16431 13.0959 4.16431Z" fill="url(#paint0_linear_737_234)"/>
<path d="M39.2875 0H26.8491C23.671 0 21.0957 2.57534 21.0957 5.75342V18.1918C21.0957 18.5205 21.3697 18.8493 21.7532 18.8493H34.1916C37.3697 18.8493 39.945 16.274 39.945 13.0959V0.657534C39.945 0.273973 39.671 0 39.2875 0Z" fill="url(#paint1_linear_737_234)"/>
<path d="M31.0135 21.4247H23.671C22.2464 21.4247 21.0957 22.5754 21.0957 24V31.3425C21.0957 31.6713 21.3697 32 21.7532 32H29.0957C30.5204 32 31.671 30.8493 31.671 29.4247V22.0274C31.6162 21.6987 31.3423 21.4247 31.0135 21.4247Z" fill="url(#paint2_linear_737_234)"/>
<path d="M17.2604 25.5342H12.7672C12.6029 25.5342 12.4385 25.6986 12.4385 25.8629V30.3561C12.4385 31.2328 13.1508 31.9451 14.0275 31.9451H18.5207C18.6851 31.9451 18.8494 31.7808 18.8494 31.6164V27.1232C18.8494 26.3013 18.1371 25.5342 17.2604 25.5342Z" fill="url(#paint3_linear_737_234)"/>
<defs>
<linearGradient id="paint0_linear_737_234" x1="9.4257" y1="23.005" x2="9.4257" y2="4.15362" gradientUnits="userSpaceOnUse">
<stop stop-color="#2AA981"/>
<stop offset="0.183" stop-color="#2FAC7E"/>
<stop offset="0.404" stop-color="#3EB677"/>
<stop offset="0.6445" stop-color="#56C76A"/>
<stop offset="0.8973" stop-color="#78DD59"/>
<stop offset="1" stop-color="#88E851"/>
</linearGradient>
<linearGradient id="paint1_linear_737_234" x1="30.5135" y1="18.8513" x2="30.5135" y2="0" gradientUnits="userSpaceOnUse">
<stop stop-color="#2AA981"/>
<stop offset="0.183" stop-color="#2FAC7E"/>
<stop offset="0.404" stop-color="#3EB677"/>
<stop offset="0.6445" stop-color="#56C76A"/>
<stop offset="0.8973" stop-color="#78DD59"/>
<stop offset="1" stop-color="#88E851"/>
</linearGradient>
<linearGradient id="paint2_linear_737_234" x1="26.3598" y1="31.9515" x2="26.3598" y2="21.4075" gradientUnits="userSpaceOnUse">
<stop stop-color="#2AA981"/>
<stop offset="0.183" stop-color="#2FAC7E"/>
<stop offset="0.404" stop-color="#3EB677"/>
<stop offset="0.6445" stop-color="#56C76A"/>
<stop offset="0.8973" stop-color="#78DD59"/>
<stop offset="1" stop-color="#88E851"/>
</linearGradient>
<linearGradient id="paint3_linear_737_234" x1="15.6563" y1="31.9514" x2="15.6563" y2="25.5611" gradientUnits="userSpaceOnUse">
<stop stop-color="#2AA981"/>
<stop offset="0.183" stop-color="#2FAC7E"/>
<stop offset="0.404" stop-color="#3EB677"/>
<stop offset="0.6445" stop-color="#56C76A"/>
<stop offset="0.8973" stop-color="#78DD59"/>
<stop offset="1" stop-color="#88E851"/>
</linearGradient>
</defs>
</svg>
