<svg width="122" height="32" viewBox="0 0 122 32" fill="none" xmlns="http://www.w3.org/2000/svg">
<path d="M37.9783 16.7194L41.0542 14.9333C41.6744 16.3721 42.7659 17.0915 44.3287 17.0915C45.7426 17.0915 46.4372 16.6698 46.4372 15.8264C46.4372 15.3551 46.2139 15.0078 45.7426 14.7597C45.2961 14.4868 44.4527 14.1892 43.2124 13.8419C41.8976 13.4946 41.0046 13.0729 40.0372 12.3783C39.1194 11.6341 38.6232 10.5178 38.6232 9.10389C38.6232 7.66513 39.1442 6.52405 40.1612 5.65583C41.2031 4.78761 42.4434 4.36591 43.8573 4.36591C46.4124 4.36591 48.4217 5.58141 49.5628 7.88839L46.5612 9.64963C46.0155 8.45893 45.2217 7.83877 43.8573 7.83877C42.7907 7.83877 42.1953 8.38451 42.1953 9.02947C42.1953 9.40157 42.369 9.74885 42.7411 10.0217C43.1132 10.3194 43.8821 10.6171 45.0232 10.9644L46.462 11.4357C46.7845 11.5349 47.231 11.7582 47.7519 12.031C48.2976 12.3039 48.6945 12.5768 48.9426 12.8992C49.4883 13.4946 50.0093 14.5364 50.0093 15.8016C50.0093 17.2899 49.4635 18.4558 48.3969 19.324C47.3302 20.1675 45.9163 20.5892 44.2046 20.5892C41.0294 20.5892 38.8713 19.1008 37.9783 16.7194Z" fill="black"/>
<path d="M51.6961 4.68835H55.2682V14.9333C55.2682 16.3721 56.0868 17.1163 57.724 17.1163C59.3612 17.1163 60.1798 16.3721 60.1798 14.9333V4.68835H63.7519V15.2558C63.7519 16.893 63.2062 18.2077 62.0651 19.1504C60.924 20.1178 59.5101 20.5891 57.7488 20.5891C55.9876 20.5891 54.5736 20.093 53.4325 19.1504C52.2915 18.2077 51.7457 16.8682 51.7457 15.2558V4.68835H51.6961Z" fill="black"/>
<path d="M74.9643 4.68835H78.5364V20.2915H75.8574L69.8543 11.8325V20.2915H66.2822V4.68835H68.9612L74.9643 13.1473V4.68835Z" fill="black"/>
<path d="M82.8279 18.2574C81.2899 16.6946 80.5457 14.7597 80.5457 12.4775C80.5457 10.1954 81.3147 8.23567 82.8279 6.69769C84.3659 5.1349 86.3007 4.36591 88.6325 4.36591C91.4108 4.36591 93.9659 5.75505 95.3054 7.9628L92.2294 9.74885C91.5349 8.53335 90.1953 7.83877 88.6325 7.83877C87.2434 7.83877 86.1271 8.26048 85.3085 9.10389C84.4899 9.9473 84.093 11.0636 84.093 12.4775C84.093 13.8915 84.4899 14.983 85.3085 15.8512C86.1271 16.6946 87.2434 17.1163 88.6325 17.1163C90.2201 17.1163 91.5845 16.3721 92.2294 15.2062L95.3054 16.9923C93.9659 19.2248 91.4604 20.5892 88.6325 20.5892C86.3007 20.5892 84.3659 19.7954 82.8279 18.2574Z" fill="black"/>
<path d="M100.564 16.8434H106.791V20.2666H96.9922V4.68835H106.691V8.11161H100.564V10.6915H106.121V14.0651H100.564V16.8434Z" fill="black"/>
<path d="M121.054 20.2666H117.011L114.357 15.7767L111.727 20.2666H107.684L112.347 12.2791L107.907 4.68835H111.95L114.357 8.80618L116.763 4.68835H120.806L116.366 12.2791L121.054 20.2666Z" fill="black"/>
<path d="M8.63256 19.0512V12.9488L12.9488 8.63256H14.8341L19.7457 3.74574L16 0L11.3116 4.68837H4.68837V11.3116L0 16L4.68837 20.6884V27.3116H7.09457L12.0062 22.4248L8.63256 19.0512Z" fill="#F73E3E"/>
<path d="M27.3117 11.3116V4.68835H23.0946L19.1008 8.68215L23.3675 12.9488V19.0511L19.0512 23.3674H15.3303L11.3613 27.3612L16 32L20.6884 27.3116H27.3117V20.6884L32 16L27.3117 11.3116Z" fill="#F73E3E"/>
<path d="M72.1921 31H70.7998V26.3591H68.0484V25.0331H74.9103V26.3591H72.1589V31H72.1921Z" fill="#F73E3E"/>
<path d="M75.8716 25H81.9711V26.326H77.2639V27.221H80.0153V28.4807H77.2639V29.6409H82.0374V30.9669H75.8716V25Z" fill="#F73E3E"/>
<path d="M84.5236 28.9448V29.6741H88.4021V28.6133H84.5899C84.3579 28.6133 84.1258 28.5801 83.9601 28.547C83.7943 28.5138 83.6617 28.4144 83.5623 28.3149C83.4628 28.2155 83.3966 28.0829 83.3303 27.9171C83.2971 27.7514 83.264 27.5525 83.264 27.2873V26.326C83.264 25.8287 83.3634 25.4972 83.5623 25.2983C83.7612 25.0994 84.0927 25 84.5899 25H88.4021C88.6341 25 88.8662 25.0331 89.0319 25.0663C89.1977 25.0994 89.3303 25.1989 89.4297 25.2983C89.5292 25.3978 89.5955 25.5304 89.6618 25.6961C89.6949 25.8619 89.7281 26.0608 89.7281 26.326V26.7238L88.3358 27.0221V26.326H84.6562V27.3205H88.4684C88.7005 27.3205 88.9325 27.3536 89.0982 27.3868C89.264 27.4199 89.3966 27.5194 89.496 27.6188C89.5955 27.7182 89.6618 27.8508 89.7281 28.0166C89.7612 28.1823 89.7944 28.3812 89.7944 28.6464V29.6409C89.7944 29.873 89.7612 30.105 89.7281 30.2707C89.6949 30.4365 89.5955 30.5691 89.496 30.6685C89.3966 30.768 89.264 30.8343 89.0982 30.9006C88.9325 30.9337 88.7336 30.9669 88.4684 30.9669H84.4242C84.1921 30.9669 83.9601 30.9337 83.7943 30.9006C83.6286 30.8674 83.496 30.768 83.3965 30.6685C83.2971 30.5691 83.2308 30.4365 83.1645 30.2707C83.1314 30.105 83.0982 29.9061 83.0982 29.6409V29.21L84.5236 28.9448Z" fill="#F73E3E"/>
<path d="M94.7005 31H93.3082V26.3591H90.5568V25.0331H97.4187V26.3591H94.6673V31H94.7005Z" fill="#F73E3E"/>
<path d="M98.3801 25H99.4741L104.314 29.0774V25H105.706V30.9669H104.612L99.7724 26.9227V30.9669H98.3801V25Z" fill="#F73E3E"/>
<path d="M107.297 25H113.397V26.326H108.69V27.221H111.441V28.4807H108.69V29.6409H113.463V30.9669H107.297V25Z" fill="#F73E3E"/>
<path d="M118.303 31H116.911V26.3591H114.159V25.0331H121.054V26.3591H118.303V31Z" fill="#F73E3E"/>
</svg>
