<svg width="126" height="27" viewBox="0 0 126 27" fill="none" xmlns="http://www.w3.org/2000/svg">
<path d="M47.6392 17H43.8157L39 2H42.7942L45.7129 12.5242H45.7712L48.6899 2H52.5133L47.6392 17Z" fill="black"/>
<path d="M55.8696 17V2H59.5763V17H55.8696Z" fill="black"/>
<path d="M72.8565 17L67.3403 7.86694L67.2819 7.89718L67.3986 17H63.8379V2H67.0484L72.6522 11.4355L72.6814 11.4052L72.5062 2H76.0378V17H72.8565Z" fill="black"/>
<path d="M85.4067 17H80.3574V2H85.144C85.8445 2 86.4865 2.03024 87.0119 2.12097C87.6248 2.21169 88.2085 2.33266 88.7047 2.54435C89.843 2.96774 90.7769 3.72379 91.5358 4.8125C92.4406 6.08266 92.8784 7.65524 92.8784 9.46976C92.8492 14.4597 90.3683 17 85.4067 17ZM88.3253 6.53629C87.7124 5.75 86.8076 5.35686 85.6401 5.35686H84.0349V13.6431H85.611C86.8076 13.6431 87.7124 13.25 88.3253 12.494C88.8798 11.7984 89.1425 10.8004 89.1425 9.53024C89.1717 8.26008 88.8798 7.2621 88.3253 6.53629Z" fill="black"/>
<path d="M105.02 17L104.319 14.8226H99.299L98.5401 17H94.5708L100.379 2H103.298L109.018 17H105.02ZM101.838 6.65726H101.78L100.291 11.7681H103.327L101.838 6.65726Z" fill="black"/>
<path d="M120.955 17L117.832 11.6774L114.855 17H110.74L115.789 9.01613L111.294 2H115.497L117.978 6.29436L120.371 2H124.545L120.109 9.10686L125.129 17H120.955Z" fill="black"/>
<path d="M15.853 6.69939L10.693 0H1.80289C0.590602 0.0966258 0 0.966258 0 1.8681C0 2.02914 0.0621687 2.2546 0.124337 2.51227L9.60506 14.7837L15.853 6.69939Z" fill="#3251DF"/>
<path d="M15.8529 6.6994L9.60498 14.7838L13.8946 20.3558C14.4231 20.7746 15.138 21.0322 15.8529 21.0322C16.63 21.0322 17.345 20.7423 17.8734 20.2914L22.1009 14.816L15.8529 6.6994Z" fill="#3A1F54"/>
<path d="M18.4329 0H10.6929L15.8529 6.69939L20.5466 0.611963C19.956 0.193252 19.21 0 18.4329 0Z" fill="#B15EE6"/>
<path d="M25.8 7.1503L21.6658 1.80367C21.2928 1.28834 20.9198 0.901834 20.5468 0.644165L15.853 6.69938L22.101 14.8159L26.2352 9.46932C26.6082 8.37423 25.8622 7.24693 25.8 7.1503Z" fill="#AB0354"/>
<path d="M31.7993 1.77147C31.8304 0.644172 30.8046 0.193252 30.0585 0H22.5361C22.9091 0.0966258 23.2822 0.515337 23.4997 0.837423L27.3231 5.76534C27.5407 6.05521 27.7894 6.53834 27.9448 7.08589L31.7371 2.15798C31.7682 2.02914 31.7993 1.90031 31.7993 1.77147Z" fill="#FF505D"/>
<path d="M94.9995 25.1349V18.5895H95.9871V24.2848H98.953V25.1349H94.9995Z" fill="black"/>
<path d="M101.432 25.2436C101.12 25.2436 100.839 25.1861 100.588 25.071C100.336 24.9538 100.137 24.7844 99.9901 24.5629C99.8452 24.3413 99.7728 24.0696 99.7728 23.7479C99.7728 23.4709 99.826 23.2429 99.9326 23.0639C100.039 22.8849 100.183 22.7433 100.364 22.6388C100.545 22.5344 100.748 22.4556 100.971 22.4023C101.195 22.3491 101.423 22.3086 101.655 22.2809C101.949 22.2468 102.188 22.2191 102.371 22.1978C102.554 22.1744 102.688 22.1371 102.771 22.0859C102.854 22.0348 102.895 21.9517 102.895 21.8366V21.8143C102.895 21.5352 102.816 21.3189 102.659 21.1655C102.503 21.0121 102.271 20.9354 101.962 20.9354C101.64 20.9354 101.387 21.0067 101.201 21.1495C101.018 21.2901 100.891 21.4467 100.821 21.6193L99.923 21.4148C100.03 21.1165 100.185 20.8757 100.39 20.6925C100.596 20.5071 100.834 20.3729 101.102 20.2898C101.371 20.2045 101.653 20.1619 101.949 20.1619C102.145 20.1619 102.353 20.1854 102.572 20.2322C102.794 20.277 103.001 20.3601 103.193 20.4815C103.386 20.603 103.545 20.7766 103.669 21.0025C103.792 21.2262 103.854 21.517 103.854 21.875V25.1349H102.921V24.4638H102.883C102.821 24.5874 102.728 24.7088 102.604 24.8281C102.481 24.9474 102.322 25.0465 102.128 25.1254C101.934 25.2042 101.702 25.2436 101.432 25.2436ZM101.639 24.4766C101.903 24.4766 102.129 24.4244 102.317 24.32C102.506 24.2156 102.65 24.0792 102.748 23.9109C102.848 23.7404 102.898 23.5582 102.898 23.3643V22.7315C102.864 22.7656 102.798 22.7976 102.7 22.8274C102.604 22.8551 102.495 22.8796 102.371 22.9009C102.248 22.9201 102.127 22.9382 102.01 22.9553C101.893 22.9702 101.795 22.983 101.716 22.9936C101.531 23.017 101.361 23.0565 101.208 23.1119C101.057 23.1673 100.935 23.2472 100.843 23.3516C100.754 23.4538 100.709 23.5902 100.709 23.7607C100.709 23.9972 100.797 24.1761 100.971 24.2976C101.146 24.4169 101.369 24.4766 101.639 24.4766Z" fill="black"/>
<path d="M105.555 26.9759C105.412 26.9759 105.282 26.9641 105.165 26.9407C105.048 26.9194 104.961 26.896 104.903 26.8704L105.133 26.0874C105.308 26.1342 105.464 26.1545 105.6 26.1481C105.736 26.1417 105.857 26.0906 105.961 25.9947C106.068 25.8988 106.161 25.7422 106.242 25.5249L106.361 25.1989L104.564 20.2259H105.587L106.83 24.0355H106.882L108.125 20.2259H109.151L107.128 25.7901C107.034 26.0458 106.915 26.2621 106.77 26.4389C106.625 26.6179 106.452 26.7521 106.252 26.8416C106.052 26.9311 105.819 26.9759 105.555 26.9759Z" fill="black"/>
<path d="M111.998 25.234C111.514 25.234 111.097 25.1307 110.748 24.924C110.401 24.7152 110.132 24.4222 109.943 24.0451C109.755 23.6658 109.661 23.2216 109.661 22.7124C109.661 22.2095 109.755 21.7663 109.943 21.3828C110.132 20.9993 110.396 20.6999 110.735 20.4847C111.076 20.2695 111.474 20.1619 111.93 20.1619C112.207 20.1619 112.476 20.2077 112.736 20.2994C112.996 20.391 113.229 20.5348 113.436 20.7308C113.642 20.9268 113.805 21.1815 113.925 21.4947C114.044 21.8058 114.104 22.1839 114.104 22.6293V22.968H110.201V22.2521H113.167C113.167 22.0007 113.116 21.7781 113.014 21.5842C112.912 21.3881 112.768 21.2337 112.582 21.1207C112.399 21.0078 112.184 20.9513 111.937 20.9513C111.668 20.9513 111.434 21.0174 111.234 21.1495C111.036 21.2795 110.882 21.4499 110.773 21.6609C110.667 21.8697 110.614 22.0966 110.614 22.3416V22.9009C110.614 23.229 110.671 23.5082 110.786 23.7383C110.903 23.9684 111.066 24.1442 111.275 24.2656C111.484 24.3849 111.728 24.4446 112.007 24.4446C112.188 24.4446 112.353 24.419 112.503 24.3679C112.652 24.3146 112.781 24.2358 112.889 24.1314C112.998 24.027 113.081 23.8981 113.139 23.7447L114.043 23.9077C113.971 24.174 113.841 24.4073 113.653 24.6076C113.468 24.8058 113.234 24.9602 112.953 25.071C112.674 25.1797 112.356 25.234 111.998 25.234Z" fill="black"/>
<path d="M115.164 25.1349V20.2259H116.088V21.0057H116.139C116.228 20.7415 116.386 20.5337 116.612 20.3825C116.84 20.229 117.098 20.1523 117.385 20.1523C117.445 20.1523 117.515 20.1545 117.596 20.1587C117.679 20.163 117.744 20.1683 117.791 20.1747V21.0888C117.753 21.0781 117.685 21.0664 117.587 21.0536C117.489 21.0387 117.391 21.0312 117.293 21.0312C117.067 21.0312 116.865 21.0792 116.689 21.1751C116.514 21.2688 116.375 21.3999 116.273 21.5682C116.171 21.7344 116.12 21.924 116.12 22.1371V25.1349H115.164Z" fill="black"/>
<path d="M120.987 25.1349V24.419L123.202 22.1243C123.439 21.875 123.633 21.6566 123.787 21.4691C123.942 21.2795 124.059 21.0994 124.135 20.929C124.212 20.7585 124.25 20.5774 124.25 20.3857C124.25 20.1683 124.199 19.9808 124.097 19.8232C123.995 19.6634 123.855 19.5408 123.678 19.4556C123.501 19.3683 123.302 19.3246 123.081 19.3246C122.846 19.3246 122.642 19.3725 122.467 19.4684C122.292 19.5643 122.158 19.6996 122.064 19.8743C121.97 20.049 121.924 20.2536 121.924 20.4879H120.981C120.981 20.0895 121.072 19.7411 121.256 19.4428C121.439 19.1445 121.69 18.9134 122.01 18.7493C122.329 18.5831 122.693 18.5 123.1 18.5C123.511 18.5 123.873 18.582 124.186 18.7461C124.502 18.908 124.748 19.1296 124.925 19.4109C125.102 19.69 125.19 20.0053 125.19 20.3569C125.19 20.5998 125.144 20.8374 125.053 21.0696C124.963 21.3018 124.806 21.5607 124.583 21.8462C124.359 22.1296 124.048 22.4737 123.649 22.8786L122.349 24.2401V24.288H125.295V25.1349H120.987Z" fill="black"/>
</svg>
