<svg width="200" height="161" viewBox="0 0 200 161" fill="none" xmlns="http://www.w3.org/2000/svg">
<path d="M65.5696 20.8505H3.2922C1.37175 20.8505 0 22.2223 0 23.8684V86.1457C0 102.332 12.8944 115.227 28.8067 115.227H91.0841C92.7302 115.227 94.3763 113.855 94.3763 111.935V49.6572C94.3763 33.745 81.4819 20.8505 65.5696 20.8505Z" fill="url(#paint0_linear_732_203)"/>
<path d="M196.708 0H134.43C118.518 0 105.624 12.8944 105.624 28.8067V91.0841C105.624 92.7302 106.996 94.3763 108.916 94.3763H171.193C187.106 94.3763 200 81.4819 200 65.5696V3.2922C200 1.37175 198.628 0 196.708 0Z" fill="url(#paint1_linear_732_203)"/>
<path d="M155.281 107.271H118.518C111.385 107.271 105.624 113.032 105.624 120.165V156.928C105.624 158.574 106.996 160.22 108.916 160.22H145.679C152.812 160.22 158.573 154.459 158.573 147.326V110.288C158.299 108.642 156.927 107.271 155.281 107.271Z" fill="url(#paint2_linear_732_203)"/>
<path d="M86.4208 127.847H63.9242C63.1011 127.847 62.2781 128.67 62.2781 129.493V151.99C62.2781 156.379 65.8446 159.946 70.2342 159.946H92.7309C93.5539 159.946 94.377 159.123 94.377 158.3V135.803C94.377 131.688 90.8104 127.847 86.4208 127.847Z" fill="url(#paint3_linear_732_203)"/>
<defs>
<linearGradient id="paint0_linear_732_203" x1="47.1934" y1="115.183" x2="47.1934" y2="20.797" gradientUnits="userSpaceOnUse">
<stop stop-color="#2AA981"/>
<stop offset="0.183" stop-color="#2FAC7E"/>
<stop offset="0.404" stop-color="#3EB677"/>
<stop offset="0.6445" stop-color="#56C76A"/>
<stop offset="0.8973" stop-color="#78DD59"/>
<stop offset="1" stop-color="#88E851"/>
</linearGradient>
<linearGradient id="paint1_linear_732_203" x1="152.777" y1="94.3864" x2="152.777" y2="0" gradientUnits="userSpaceOnUse">
<stop stop-color="#2AA981"/>
<stop offset="0.183" stop-color="#2FAC7E"/>
<stop offset="0.404" stop-color="#3EB677"/>
<stop offset="0.6445" stop-color="#56C76A"/>
<stop offset="0.8973" stop-color="#78DD59"/>
<stop offset="1" stop-color="#88E851"/>
</linearGradient>
<linearGradient id="paint2_linear_732_203" x1="131.98" y1="159.977" x2="131.98" y2="107.184" gradientUnits="userSpaceOnUse">
<stop stop-color="#2AA981"/>
<stop offset="0.183" stop-color="#2FAC7E"/>
<stop offset="0.404" stop-color="#3EB677"/>
<stop offset="0.6445" stop-color="#56C76A"/>
<stop offset="0.8973" stop-color="#78DD59"/>
<stop offset="1" stop-color="#88E851"/>
</linearGradient>
<linearGradient id="paint3_linear_732_203" x1="78.3895" y1="159.977" x2="78.3895" y2="127.982" gradientUnits="userSpaceOnUse">
<stop stop-color="#2AA981"/>
<stop offset="0.183" stop-color="#2FAC7E"/>
<stop offset="0.404" stop-color="#3EB677"/>
<stop offset="0.6445" stop-color="#56C76A"/>
<stop offset="0.8973" stop-color="#78DD59"/>
<stop offset="1" stop-color="#88E851"/>
</linearGradient>
</defs>
</svg>
