<svg width="136" height="31" viewBox="0 0 136 31" fill="none" xmlns="http://www.w3.org/2000/svg">
<g id="Group 852">
<g id="Group">
<g id="Group_2">
<g id="Group_3">
<g id="Group_4">
<path id="Vector" d="M59.3148 6.02344C61.3106 6.02344 62.8709 6.62218 64.0049 7.81058C65.1389 8.99899 65.7013 10.6591 65.7013 12.7729V23.9765H61.3287V14.8957C61.3287 11.6117 60.2582 9.96967 58.1173 9.96967C56.8745 9.96967 55.8947 10.3688 55.178 11.1762C54.4614 11.9745 54.0985 13.0359 54.0985 14.3514V23.9765H49.7168V6.45888H53.8808V9.27114H53.9533C54.9512 7.11205 56.7384 6.02344 59.3148 6.02344Z" fill="#252729"/>
</g>
</g>
</g>
<g id="Group_5">
<g id="Group_6">
<g id="Group_7">
<path id="Vector_2" d="M79.3145 6.02344C81.9453 6.02344 83.9683 6.9034 85.3926 8.65426C86.8168 10.4051 87.5335 12.6912 87.5335 15.5125V16.7554H74.1707C74.3159 18.0254 74.8239 19.0324 75.6857 19.7854C76.5476 20.5383 77.618 20.9193 78.879 20.9193C80.7297 20.9193 82.2991 20.1301 83.5873 18.5516L86.7261 20.9193C84.8301 23.2508 82.3626 24.4211 79.3145 24.4211C76.6383 24.4211 74.3794 23.5683 72.5469 21.8628C70.7144 20.1573 69.7891 17.9438 69.7891 15.2222C69.7891 12.5007 70.7053 10.2872 72.5469 8.58169C74.3885 6.87619 76.6383 6.02344 79.3145 6.02344ZM83.1518 13.4714C83.1246 12.0834 82.7073 11.0492 81.8727 10.3507C81.0472 9.65216 79.9767 9.30743 78.6613 9.30743C77.3459 9.30743 76.3117 9.68845 75.5587 10.4595C74.8058 11.2216 74.3431 12.2286 74.1707 13.4714H83.1518Z" fill="#252729"/>
</g>
</g>
</g>
<g id="Group_8">
<g id="Group_9">
<g id="Group_10">
<path id="Vector_3" d="M94.025 6.47266L98.697 18.7377H98.7695L103.478 6.47266H107.968L101.074 23.9903H96.4018L89.2441 6.47266H94.025Z" fill="#252729"/>
</g>
</g>
</g>
<g id="Group_11">
<g id="Group_12">
<g id="Group_13">
<path id="Vector_4" d="M117.962 6.02344C120.465 6.02344 122.343 6.62218 123.577 7.82873C124.82 9.03528 125.437 10.9222 125.437 13.5077V23.9765H121.5V21.5634H121.391C120.202 23.4594 118.324 24.412 115.775 24.412C113.879 24.412 112.337 23.9221 111.158 22.9333C109.978 21.9445 109.389 20.6925 109.389 19.1503C109.389 17.1092 110.241 15.5851 111.947 14.5782C113.652 13.5712 116.383 13.0632 120.157 13.0632H121.509V12.5461C121.509 11.53 121.146 10.7317 120.411 10.1602C119.685 9.58866 118.705 9.29836 117.49 9.29836C115.685 9.29836 114.133 9.90617 112.818 11.1218L110.523 8.82663C112.346 6.9669 114.823 6.02344 117.962 6.02344ZM113.77 18.8328C113.77 19.5858 114.079 20.1573 114.705 20.5474C115.322 20.9375 116.047 21.128 116.873 21.128C118.379 21.128 119.486 20.7561 120.193 20.0122C120.901 19.2683 121.255 18.343 121.255 17.218V16.1385H119.966C115.83 16.1385 113.77 17.0366 113.77 18.8328Z" fill="#252729"/>
</g>
</g>
</g>
<g id="Group_14">
<g id="Group_15">
<g id="Group_16">
<path id="Vector_5" d="M133.075 18.5801C133.856 18.5801 134.536 18.8432 135.117 19.3693C135.706 19.8955 135.997 20.5577 135.997 21.3561C135.997 22.1634 135.706 22.8348 135.117 23.3881C134.536 23.9324 133.856 24.2046 133.075 24.2046C132.295 24.2046 131.615 23.9415 131.025 23.4063C130.445 22.871 130.154 22.2088 130.154 21.4377C130.154 20.6303 130.445 19.959 131.025 19.4147C131.606 18.8522 132.295 18.5801 133.075 18.5801Z" fill="#252729"/>
</g>
</g>
</g>
</g>
<g id="Group_17">
<g id="Group_18">
<path id="Vector_6" d="M7.63846 30.4525L0 29.7993C0.689457 21.7617 1.56942 15.7924 2.7034 11.5559C3.66501 7.95437 5.43401 3.09189 9.61611 2.43872C12.1109 2.04863 14.4332 3.25518 16.5288 6.03115C17.9168 7.87273 19.3229 10.5126 20.8198 14.1232L13.7438 17.0715C12.4919 14.0597 11.5121 12.2816 10.8317 11.2474C9.97899 13.4791 8.64543 18.6682 7.63846 30.4525Z" fill="url(#paint0_linear_1133_1041)"/>
</g>
<g id="Group_19">
<path id="Vector_7" d="M23.2407 27.7144C21.6169 27.7144 19.4669 26.9977 17.3803 24.1401C16.1103 22.4074 14.8584 19.9308 13.543 16.5742L20.6825 13.7801C21.635 16.2113 22.4061 17.7535 22.9867 18.7242C23.8939 16.4563 25.3 11.3398 26.5973 0L34.2176 0.870893C33.3104 8.79058 32.2763 14.66 31.0425 18.8149C29.9085 22.6523 28.0669 27.1338 23.9574 27.669C23.7306 27.6962 23.4947 27.7144 23.2407 27.7144Z" fill="url(#paint1_linear_1133_1041)"/>
</g>
</g>
</g>
<defs>
<linearGradient id="paint0_linear_1133_1041" x1="-2.26032" y1="27.6811" x2="15.2957" y2="7.93062" gradientUnits="userSpaceOnUse">
<stop stop-color="#3B4550" stop-opacity="0"/>
<stop offset="0.1211" stop-color="#296168" stop-opacity="0.2288"/>
<stop offset="0.292" stop-color="#128286" stop-opacity="0.5518"/>
<stop offset="0.4342" stop-color="#059798" stop-opacity="0.8206"/>
<stop offset="0.5291" stop-color="#009E9E"/>
</linearGradient>
<linearGradient id="paint1_linear_1133_1041" x1="18.2469" y1="25.8454" x2="31.7065" y2="0.828054" gradientUnits="userSpaceOnUse">
<stop offset="0.3545" stop-color="#009E9E"/>
<stop offset="0.5041" stop-color="#029A9B" stop-opacity="0.7683"/>
<stop offset="0.6371" stop-color="#0A9091" stop-opacity="0.5623"/>
<stop offset="0.7638" stop-color="#167D81" stop-opacity="0.3659"/>
<stop offset="0.8859" stop-color="#26646B" stop-opacity="0.1768"/>
<stop offset="1" stop-color="#3B4550" stop-opacity="0"/>
</linearGradient>
</defs>
</svg>
