<svg width="35" height="31" viewBox="0 0 35 31" fill="none" xmlns="http://www.w3.org/2000/svg">
<g id="Group">
<g id="Group_2">
<path id="Vector" d="M7.63846 30.4525L0 29.7993C0.689457 21.7617 1.56942 15.7924 2.7034 11.5559C3.66501 7.95437 5.43401 3.09189 9.61611 2.43872C12.1109 2.04863 14.4332 3.25518 16.5288 6.03115C17.9168 7.87273 19.3229 10.5126 20.8198 14.1232L13.7438 17.0715C12.4919 14.0597 11.5121 12.2816 10.8317 11.2474C9.97899 13.4791 8.64543 18.6682 7.63846 30.4525Z" fill="url(#paint0_linear_1133_1036)"/>
</g>
<g id="Group_3">
<path id="Vector_2" d="M23.2407 27.7144C21.6169 27.7144 19.4669 26.9977 17.3803 24.1401C16.1103 22.4074 14.8584 19.9308 13.543 16.5742L20.6825 13.7801C21.635 16.2113 22.4061 17.7535 22.9867 18.7242C23.8939 16.4563 25.3 11.3398 26.5973 0L34.2176 0.870893C33.3104 8.79058 32.2763 14.66 31.0425 18.8149C29.9085 22.6523 28.0669 27.1338 23.9574 27.669C23.7306 27.6962 23.4947 27.7144 23.2407 27.7144Z" fill="url(#paint1_linear_1133_1036)"/>
</g>
</g>
<defs>
<linearGradient id="paint0_linear_1133_1036" x1="-2.26032" y1="27.6811" x2="15.2957" y2="7.93062" gradientUnits="userSpaceOnUse">
<stop stop-color="#3B4550" stop-opacity="0"/>
<stop offset="0.1211" stop-color="#296168" stop-opacity="0.2288"/>
<stop offset="0.292" stop-color="#128286" stop-opacity="0.5518"/>
<stop offset="0.4342" stop-color="#059798" stop-opacity="0.8206"/>
<stop offset="0.5291" stop-color="#009E9E"/>
</linearGradient>
<linearGradient id="paint1_linear_1133_1036" x1="18.2469" y1="25.8454" x2="31.7065" y2="0.828054" gradientUnits="userSpaceOnUse">
<stop offset="0.3545" stop-color="#009E9E"/>
<stop offset="0.5041" stop-color="#029A9B" stop-opacity="0.7683"/>
<stop offset="0.6371" stop-color="#0A9091" stop-opacity="0.5623"/>
<stop offset="0.7638" stop-color="#167D81" stop-opacity="0.3659"/>
<stop offset="0.8859" stop-color="#26646B" stop-opacity="0.1768"/>
<stop offset="1" stop-color="#3B4550" stop-opacity="0"/>
</linearGradient>
</defs>
</svg>
