<?xml version="1.0" standalone="no"?>
<!DOCTYPE svg PUBLIC "-//W3C//DTD SVG 20010904//EN"
 "http://www.w3.org/TR/2001/REC-SVG-20010904/DTD/svg10.dtd">
<svg version="1.0" xmlns="http://www.w3.org/2000/svg"
 width="192.000000pt" height="192.000000pt" viewBox="0 0 192.000000 192.000000"
 preserveAspectRatio="xMidYMid meet">

<g transform="translate(0.000000,192.000000) scale(0.100000,-0.100000)"
fill="#000000" stroke="none">
<path d="M820 1775 l-134 -135 -201 -2 -200 -3 -3 -200 -2 -200 -138 -137
-137 -138 137 -137 138 -138 2 -200 3 -200 64 -3 65 -3 148 148 148 147 -100
102 -100 101 0 184 0 183 133 133 133 133 60 0 59 0 143 143 142 142 -108 108
c-59 59 -110 107 -112 107 -3 0 -66 -61 -140 -135z"/>
<path d="M1275 1520 l-119 -120 127 -128 127 -129 0 -183 0 -184 -133 -133
-133 -133 -115 0 -114 0 -115 -115 -115 -115 138 -137 137 -138 137 137 138
138 200 2 200 3 3 200 2 200 138 138 137 137 -137 138 -138 137 -2 200 -3 200
-120 3 -120 2 -120 -120z"/>
</g>
</svg>
