<svg width="32" height="22" viewBox="0 0 32 22" fill="none" xmlns="http://www.w3.org/2000/svg">
<path d="M15.853 6.69939L10.693 0H1.80289C0.590602 0.0966258 0 0.966258 0 1.8681C0 2.02914 0.0621687 2.2546 0.124337 2.51227L9.60506 14.7837L15.853 6.69939Z" fill="#3251DF"/>
<path d="M15.8529 6.6994L9.60498 14.7838L13.8946 20.3558C14.4231 20.7746 15.138 21.0322 15.8529 21.0322C16.63 21.0322 17.345 20.7423 17.8734 20.2914L22.1009 14.816L15.8529 6.6994Z" fill="#3A1F54"/>
<path d="M18.4329 0H10.6929L15.8529 6.69939L20.5466 0.611963C19.956 0.193252 19.21 0 18.4329 0Z" fill="#B15EE6"/>
<path d="M25.8 7.1503L21.6658 1.80367C21.2928 1.28834 20.9198 0.901834 20.5468 0.644165L15.853 6.69938L22.101 14.8159L26.2352 9.46932C26.6082 8.37423 25.8622 7.24693 25.8 7.1503Z" fill="#AB0354"/>
<path d="M31.7993 1.77147C31.8304 0.644172 30.8046 0.193252 30.0585 0H22.5361C22.9091 0.0966258 23.2822 0.515337 23.4997 0.837423L27.3231 5.76534C27.5407 6.05521 27.7894 6.53834 27.9448 7.08589L31.7371 2.15798C31.7682 2.02914 31.7993 1.90031 31.7993 1.77147Z" fill="#FF505D"/>
</svg>
